<?xml version="1.0" encoding="UTF-8"?>
<svg version="1.1" xmlns="http://www.w3.org/2000/svg" width="593" height="395">
<path d="M0 0 C195.69 0 391.38 0 593 0 C593 130.35 593 260.7 593 395 C397.31 395 201.62 395 0 395 C0 264.65 0 134.3 0 0 Z " fill="#012493" transform="translate(0,0)"/>
<path d="M0 0 C65.34 0 130.68 0 198 0 C198 130.02 198 260.04 198 394 C132.66 394 67.32 394 0 394 C0 263.98 0 133.96 0 0 Z " fill="#F8F7F7" transform="translate(197,0)"/>
<path d="M0 0 C65.01 0 130.02 0 197 0 C197 130.02 197 260.04 197 394 C131.99 394 66.98 394 0 394 C0 263.98 0 133.96 0 0 Z " fill="#EE2838" transform="translate(395,0)"/>
</svg>
